{
    "asset": {
        "generator": "Noesis",
        "version": "2.0"
    },
    "scene": 0,
    "scenes": [
        {
            "nodes": [
                0,
                1
            ]
        }
    ],
    "nodes": [
        {
            "name": "mesh0_noesis_meshnode_0000",
            "translation": [
                0.0,
                0.0,
                0.0
            ],
            "rotation": [
                0.0,
                0.0,
                0.0,
                1.0
            ],
            "scale": [
                1.0,
                1.0,
                1.0
            ],
            "mesh": 0,
            "skin": 0
        },
        {
            "name": "bone0",
            "children": [
                2,
                3
            ],
            "translation": [
                0.0,
                0.0,
                0.0
            ],
            "rotation": [
                0.0,
                0.0,
                0.0,
                1.0
            ],
            "scale": [
                1.0,
                1.0,
                1.0
            ]
        },
        {
            "name": "bone1",
            "children": [
                4,
                5,
                6
            ],
            "translation": [
                0.0,
                0.0,
                0.0
            ],
            "rotation": [
                0.0,
                0.0,
                0.0,
                1.0
            ],
            "scale": [
                1.0,
                1.0,
                1.0
            ]
        },
        {
            "name": "bone2",
            "children": [
                7,
                8
            ],
            "translation": [
                0.0,
                0.0,
                0.0
            ],
            "rotation": [
                0.0,
                0.0,
                0.0,
                1.0
            ],
            "scale": [
                1.0,
                1.0,
                1.0
            ]
        },
        {
            "name": "bone3",
            "children": [
                9
            ],
            "translation": [
                0.0,
                0.00177007354795932769775390625,
                0.0
            ],
            "rotation": [
                0.0,
                0.0,
                0.0,
                1.0
            ],
            "scale": [
                1.0,
                1.0,
                1.0
            ]
        },
        {
            "name": "bone4",
            "children": [
                10
            ],
            "translation": [
                0.0,
                0.00177007354795932769775390625,
                0.0
            ],
            "rotation": [
                0.0,
                0.0,
                0.0,
                1.0
            ],
            "scale": [
                1.0,
                1.0,
                1.0
            ]
        },
        {
            "name": "bone5",
            "children": [
                11
            ],
            "translation": [
                0.0,
                0.00177007354795932769775390625,
                0.0
            ],
            "rotation": [
                0.0,
                0.0,
                0.0,
                1.0
            ],
            "scale": [
                1.0,
                1.0,
                1.0
            ]
        },
        {
            "name": "bone6",
            "children": [
                12
            ],
            "translation": [
                0.0,
                0.001312295906245708465576171875,
                0.0
            ],
            "rotation": [
                0.0,
                0.0,
                0.0,
                1.0
            ],
            "scale": [
                1.0,
                1.0,
                1.0
            ]
        },
        {
            "name": "bone7",
            "children": [
                13
            ],
            "translation": [
                0.0,
                0.001312295906245708465576171875,
                0.0
            ],
            "rotation": [
                0.0,
                0.0,
                0.0,
                1.0
            ],
            "scale": [
                1.0,
                1.0,
                1.0
            ]
        },
        {
            "name": "bone8",
            "children": [
                14
            ],
            "translation": [
                0.0,
                0.000579851679503917694091796875,
                0.0
            ],
            "rotation": [
                0.0,
                0.0,
                0.0,
                1.0
            ],
            "scale": [
                1.0,
                1.0,
                1.0
            ]
        },
        {
            "name": "bone9",
            "translation": [
                0.0,
                0.00048829615116119384765625,
                0.0
            ],
            "rotation": [
                0.0,
                0.0,
                0.0,
                1.0
            ],
            "scale": [
                1.0,
                1.0,
                1.0
            ]
        },
        {
            "name": "bone10",
            "children": [
                15
            ],
            "translation": [
                0.0,
                0.000579851679503917694091796875,
                0.0
            ],
            "rotation": [
                0.0,
                0.0,
                0.0,
                1.0
            ],
            "scale": [
                1.0,
                1.0,
                1.0
            ]
        },
        {
            "name": "bone11",
            "children": [
                16
            ],
            "translation": [
                0.0,
                0.00042725913226604461669921875,
                0.0
            ],
            "rotation": [
                0.0,
                0.0,
                0.0,
                1.0
            ],
            "scale": [
                1.0,
                1.0,
                1.0
            ]
        },
        {
            "name": "bone12",
            "children": [
                17
            ],
            "translation": [
                0.0,
                0.00042725913226604461669921875,
                0.0
            ],
            "rotation": [
                0.0,
                0.0,
                0.0,
                1.0
            ],
            "scale": [
                1.0,
                1.0,
                1.0
            ]
        },
        {
            "name": "bone13",
            "children": [
                18
            ],
            "translation": [
                0.0,
                0.0006103701889514923095703125,
                0.0
            ],
            "rotation": [
                0.0,
                0.0,
                0.0,
                1.0
            ],
            "scale": [
                1.0,
                1.0,
                1.0
            ]
        },
        {
            "name": "bone14",
            "children": [
                19
            ],
            "translation": [
                0.0,
                0.0006103701889514923095703125,
                0.0
            ],
            "rotation": [
                0.0,
                0.0,
                0.0,
                1.0
            ],
            "scale": [
                1.0,
                1.0,
                1.0
            ]
        },
        {
            "name": "bone15",
            "children": [
                20
            ],
            "translation": [
                0.0,
                0.002166814170777797698974609375,
                0.0
            ],
            "rotation": [
                0.0,
                0.0,
                0.0,
                1.0
            ],
            "scale": [
                1.0,
                1.0,
                1.0
            ]
        },
        {
            "name": "bone16",
            "children": [
                21
            ],
            "translation": [
                0.0,
                0.002166814170777797698974609375,
                0.0
            ],
            "rotation": [
                0.0,
                0.0,
                0.0,
                1.0
            ],
            "scale": [
                1.0,
                1.0,
                1.0
            ]
        },
        {
            "name": "bone17",
            "children": [
                22
            ],
            "translation": [
                0.0,
                0.001495406962931156158447265625,
                0.0
            ],
            "rotation": [
                0.0,
                0.0,
                0.0,
                1.0
            ],
            "scale": [
                1.0,
                1.0,
                1.0
            ]
        },
        {
            "name": "bone18",
            "children": [
                23
            ],
            "translation": [
                0.0,
                0.001495406962931156158447265625,
                0.0
            ],
            "rotation": [
                0.0,
                0.0,
                0.0,
                1.0
            ],
            "scale": [
                1.0,
                1.0,
                1.0
            ]
        },
        {
            "name": "bone19",
            "translation": [
                0.0,
                0.003143406473100185394287109375,
                0.0
            ],
            "rotation": [
                0.0,
                0.0,
                0.0,
                1.0
            ],
            "scale": [
                1.0,
                1.0,
                1.0
            ]
        },
        {
            "name": "bone20",
            "translation": [
                0.0,
                0.003143406473100185394287109375,
                0.0
            ],
            "rotation": [
                0.0,
                0.0,
                0.0,
                1.0
            ],
            "scale": [
                1.0,
                1.0,
                1.0
            ]
        },
        {
            "name": "bone21",
            "translation": [
                0.0,
                0.001373332925140857696533203125,
                0.0
            ],
            "rotation": [
                0.0,
                0.0,
                0.0,
                1.0
            ],
            "scale": [
                1.0,
                1.0,
                1.0
            ]
        },
        {
            "name": "bone22",
            "children": [
                24
            ],
            "translation": [
                0.0,
                0.001373332925140857696533203125,
                0.0
            ],
            "rotation": [
                0.0,
                0.0,
                0.0,
                1.0
            ],
            "scale": [
                1.0,
                1.0,
                1.0
            ]
        },
        {
            "name": "bone23",
            "children": [
                25
            ],
            "translation": [
                0.0,
                0.000457777641713619232177734375,
                0.0
            ],
            "rotation": [
                0.0,
                0.0,
                0.0,
                1.0
            ],
            "scale": [
                1.0,
                1.0,
                1.0
            ]
        },
        {
            "name": "bone24",
            "translation": [
                0.0,
                0.000091555528342723846435546875,
                0.0
            ],
            "rotation": [
                0.0,
                0.0,
                0.0,
                1.0
            ],
            "scale": [
                1.0,
                1.0,
                1.0
            ]
        }
    ],
    "meshes": [
        {
            "primitives": [
                {
                    "attributes": {
                        "POSITION": 1,
                        "NORMAL": 2,
                        "TANGENT": 3,
                        "TEXCOORD_0": 4,
                        "JOINTS_0": 5,
                        "WEIGHTS_0": 6
                    },
                    "indices": 0,
                    "material": 0,
                    "mode": 4
                }
            ],
            "name": "mesh0"
        }
    ],
    "skins": [
        {
            "inverseBindMatrices": 7,
            "joints": [
                2,
                1,
                5,
                10,
                3,
                11,
                9,
                14,
                20,
                16,
                12,
                18,
                22,
                15,
                21,
                17,
                13,
                19,
                23
            ]
        }
    ],
    "materials": [
        {
            "pbrMetallicRoughness": {
                "baseColorTexture": {
                    "index": 0
                },
                "metallicFactor": 0.0
            },
            "alphaMode": "MASK",
            "alphaCutoff": 0.20000000298023223876953125,
            "extensions": {
                "NOESIS_extendedInformation": {
                    "maskedDefaultBlend": true
                }
            },
            "name": "mat_0"
        }
    ],
    "textures": [
        {
            "sampler": 0,
            "source": 0
        }
    ],
    "images": [
        {
            "uri": "d0000_tex00.png"
        }
    ],
    "samplers": [
        {
            "magFilter": 9729,
            "minFilter": 9729,
            "wrapS": 10497,
            "wrapT": 10497
        }
    ],
    "accessors": [
        {
            "bufferView": 0,
            "byteOffset": 0,
            "componentType": 5123,
            "count": 7113,
            "max": [
                7112
            ],
            "min": [
                0
            ],
            "type": "SCALAR"
        },
        {
            "bufferView": 1,
            "byteOffset": 0,
            "componentType": 5126,
            "count": 7113,
            "max": [
                0.10699789226055145263671875,
                0.35514390468597412109375,
                0.07953123748302459716796875
            ],
            "min": [
                -0.10699789226055145263671875,
                -0.03021332435309886932373046875,
                -0.1329996585845947265625
            ],
            "type": "VEC3"
        },
        {
            "bufferView": 2,
            "byteOffset": 0,
            "componentType": 5126,
            "count": 7113,
            "max": [
                0.99994659423828125,
                1.0,
                0.99999964237213134765625
            ],
            "min": [
                -0.99994659423828125,
                -0.999532639980316162109375,
                -1.0
            ],
            "type": "VEC3"
        },
        {
            "bufferView": 3,
            "byteOffset": 0,
            "componentType": 5126,
            "count": 7113,
            "max": [
                1.0,
                0.999999940395355224609375,
                1.0,
                1.0
            ],
            "min": [
                -1.0,
                -1.0,
                -0.99995696544647216796875,
                -1.0
            ],
            "type": "VEC4"
        },
        {
            "bufferView": 4,
            "byteOffset": 0,
            "componentType": 5126,
            "count": 7113,
            "max": [
                0.987204730510711669921875,
                0.987204730510711669921875
            ],
            "min": [
                0.01279527507722377777099609375,
                0.01279527507722377777099609375
            ],
            "type": "VEC2"
        },
        {
            "bufferView": 5,
            "byteOffset": 0,
            "componentType": 5123,
            "count": 7113,
            "max": [
                18,
                0,
                0,
                0
            ],
            "min": [
                0,
                0,
                0,
                0
            ],
            "type": "VEC4"
        },
        {
            "bufferView": 6,
            "byteOffset": 0,
            "componentType": 5126,
            "count": 7113,
            "max": [
                1.0,
                0.0,
                0.0,
                0.0
            ],
            "min": [
                1.0,
                0.0,
                0.0,
                0.0
            ],
            "type": "VEC4"
        },
        {
            "bufferView": 7,
            "byteOffset": 0,
            "componentType": 5126,
            "count": 19,
            "max": [
                1.0,
                0.0,
                0.0,
                0.0,
                0.0,
                1.0,
                0.0,
                0.0,
                0.0,
                0.0,
                1.0,
                0.0,
                0.0,
                0.0,
                0.0,
                1.0
            ],
            "min": [
                1.0,
                0.0,
                0.0,
                0.0,
                0.0,
                1.0,
                0.0,
                0.0,
                0.0,
                0.0,
                1.0,
                0.0,
                0.0,
                -0.007049775682389736175537109375,
                0.0,
                1.0
            ],
            "type": "MAT4"
        }
    ],
    "bufferViews": [
        {
            "buffer": 0,
            "byteOffset": 0,
            "byteLength": 14228,
            "target": 34963
        },
        {
            "buffer": 0,
            "byteOffset": 14228,
            "byteLength": 85356,
            "byteStride": 12,
            "target": 34962
        },
        {
            "buffer": 0,
            "byteOffset": 99584,
            "byteLength": 85356,
            "byteStride": 12,
            "target": 34962
        },
        {
            "buffer": 0,
            "byteOffset": 184940,
            "byteLength": 113808,
            "byteStride": 16,
            "target": 34962
        },
        {
            "buffer": 0,
            "byteOffset": 298748,
            "byteLength": 56904,
            "byteStride": 8,
            "target": 34962
        },
        {
            "buffer": 0,
            "byteOffset": 355652,
            "byteLength": 56904,
            "byteStride": 8,
            "target": 34962
        },
        {
            "buffer": 0,
            "byteOffset": 412556,
            "byteLength": 113808,
            "byteStride": 16,
            "target": 34962
        },
        {
            "buffer": 0,
            "byteOffset": 526364,
            "byteLength": 1216
        }
    ],
    "buffers": [
        {
            "byteLength": 527580,
            "uri": "d0000.bin"
        }
    ],
    "extensionsUsed": [
        "NOESIS_extendedInformation"
    ]
}
